<svg width="716" height="194" viewBox="0 0 716 194" fill="none" xmlns="http://www.w3.org/2000/svg">
<path d="M225.025 37.1176V98.4854H210.233V23.1897H225.025V36.4813C225.126 34.6431 225.579 32.9228 226.384 31.3202C227.189 29.6705 228.245 28.2565 229.553 27.0782C230.912 25.8527 232.472 24.9101 234.233 24.2502C235.993 23.5432 237.88 23.1897 239.893 23.1897H255.666C257.729 23.1897 259.64 23.5668 261.401 24.3209C263.213 25.0279 264.797 26.0177 266.156 27.2903C267.514 28.5158 268.571 29.9769 269.326 31.6737C270.131 33.3705 270.533 35.1852 270.533 37.1176V49.8437H255.666V37.1176H225.025Z" fill="white"/>
<path d="M289.023 65.6098C289.023 63.6773 289.4 61.8863 290.155 60.2366C290.96 58.5398 292.017 57.0551 293.325 55.7825C294.683 54.5099 296.268 53.5201 298.079 52.8131C299.891 52.0589 301.802 51.6819 303.815 51.6819H342.153V37.1176H293.627V23.1897H342.153C344.216 23.1897 346.153 23.5668 347.964 24.3209C349.776 25.0279 351.335 26.0177 352.643 27.2903C354.002 28.5158 355.058 29.9769 355.813 31.6737C356.618 33.3705 357.021 35.1852 357.021 37.1176V98.4854H342.153V85.7594C342.002 87.5033 341.499 89.153 340.644 90.7084C339.789 92.2638 338.682 93.6307 337.323 94.809C336.015 95.9402 334.506 96.8357 332.795 97.4956C331.084 98.1555 329.273 98.4854 327.361 98.4854H303.815C301.802 98.4854 299.891 98.1319 298.079 97.4249C296.268 96.6708 294.683 95.681 293.325 94.4555C292.017 93.1829 290.96 91.6982 290.155 90.0014C289.4 88.3046 289.023 86.4899 289.023 84.5575V65.6098ZM303.815 84.5575H342.153V65.6098H303.815V84.5575Z" fill="white"/>
<path d="M380.265 23.1897H446.753V26.9368L403.962 84.5575H446.753V98.4854H378.756V94.7383L421.547 37.1176H380.265V23.1897Z" fill="white"/>
<path d="M627.19 84.5575C627.19 86.4899 626.787 88.3046 625.982 90.0014C625.227 91.6982 624.171 93.1829 622.812 94.4555C621.504 95.681 619.945 96.6708 618.133 97.4249C616.372 98.1319 614.46 98.4854 612.398 98.4854H572.475C570.462 98.4854 568.55 98.1319 566.739 97.4249C564.928 96.6708 563.343 95.681 561.984 94.4555C560.676 93.1829 559.62 91.6982 558.815 90.0014C558.06 88.3046 557.683 86.4899 557.683 84.5575V37.1176C557.683 35.1852 558.06 33.3705 558.815 31.6737C559.62 29.9769 560.676 28.5158 561.984 27.2903C563.343 26.0177 564.928 25.0279 566.739 24.3209C568.55 23.5668 570.462 23.1897 572.475 23.1897H612.398C614.46 23.1897 616.372 23.5668 618.133 24.3209C619.945 25.0279 621.504 26.0177 622.812 27.2903C624.171 28.5158 625.227 29.9769 625.982 31.6737C626.787 33.3705 627.19 35.1852 627.19 37.1176V84.5575ZM572.475 37.1176V84.5575H612.398V37.1176H572.475Z" fill="white"/>
<path d="M700.545 84.5575V67.0945H665.301C663.239 67.0945 661.302 66.741 659.49 66.034C657.679 65.2799 656.094 64.2901 654.736 63.0646C653.428 61.792 652.371 60.3073 651.566 58.6105C650.811 56.9137 650.434 55.0991 650.434 53.1666V37.1176C650.434 35.1852 650.811 33.3705 651.566 31.6737C652.371 29.9769 653.428 28.5158 654.736 27.2903C656.094 26.0177 657.679 25.0279 659.49 24.3209C661.302 23.5668 663.239 23.1897 665.301 23.1897H712.319V37.1176H665.301V53.1666H700.545C702.608 53.1666 704.52 53.5436 706.281 54.2978C708.092 55.0048 709.677 55.9946 711.036 57.2672C712.394 58.4927 713.451 59.9538 714.205 61.6506C715.01 63.3474 715.413 65.1621 715.413 67.0945V84.5575C715.413 86.4899 715.01 88.3046 714.205 90.0014C713.451 91.6982 712.394 93.1829 711.036 94.4555C709.677 95.681 708.092 96.6708 706.281 97.4249C704.52 98.1319 702.608 98.4854 700.545 98.4854H650.434V84.5575H700.545Z" fill="white"/>
<path d="M469.459 23.1897H535.948V26.9368L493.157 84.5575H535.948V98.4854H467.95V94.7383L510.741 37.1176H469.459V23.1897Z" fill="white"/>
<path d="M225.025 37.1176V98.4854H210.233V23.1897H225.025V36.4813C225.126 34.6431 225.579 32.9228 226.384 31.3202C227.189 29.6705 228.245 28.2565 229.553 27.0782C230.912 25.8527 232.472 24.9101 234.233 24.2502C235.993 23.5432 237.88 23.1897 239.893 23.1897H255.666C257.729 23.1897 259.64 23.5668 261.401 24.3209C263.213 25.0279 264.797 26.0177 266.156 27.2903C267.514 28.5158 268.571 29.9769 269.326 31.6737C270.131 33.3705 270.533 35.1852 270.533 37.1176V49.8437H255.666V37.1176H225.025Z" stroke="white"/>
<path d="M289.023 65.6098C289.023 63.6773 289.4 61.8863 290.155 60.2366C290.96 58.5398 292.017 57.0551 293.325 55.7825C294.683 54.5099 296.268 53.5201 298.079 52.8131C299.891 52.0589 301.802 51.6819 303.815 51.6819H342.153V37.1176H293.627V23.1897H342.153C344.216 23.1897 346.153 23.5668 347.964 24.3209C349.776 25.0279 351.335 26.0177 352.643 27.2903C354.002 28.5158 355.058 29.9769 355.813 31.6737C356.618 33.3705 357.021 35.1852 357.021 37.1176V98.4854H342.153V85.7594C342.002 87.5033 341.499 89.153 340.644 90.7084C339.789 92.2638 338.682 93.6307 337.323 94.809C336.015 95.9402 334.506 96.8357 332.795 97.4956C331.084 98.1555 329.273 98.4854 327.361 98.4854H303.815C301.802 98.4854 299.891 98.1319 298.079 97.4249C296.268 96.6708 294.683 95.681 293.325 94.4555C292.017 93.1829 290.96 91.6982 290.155 90.0014C289.4 88.3046 289.023 86.4899 289.023 84.5575V65.6098ZM303.815 84.5575H342.153V65.6098H303.815V84.5575Z" stroke="white"/>
<path d="M380.265 23.1897H446.753V26.9368L403.962 84.5575H446.753V98.4854H378.756V94.7383L421.547 37.1176H380.265V23.1897Z" stroke="white"/>
<path d="M627.19 84.5575C627.19 86.4899 626.787 88.3046 625.982 90.0014C625.227 91.6982 624.171 93.1829 622.812 94.4555C621.504 95.681 619.945 96.6708 618.133 97.4249C616.372 98.1319 614.46 98.4854 612.398 98.4854H572.475C570.462 98.4854 568.55 98.1319 566.739 97.4249C564.928 96.6708 563.343 95.681 561.984 94.4555C560.676 93.1829 559.62 91.6982 558.815 90.0014C558.06 88.3046 557.683 86.4899 557.683 84.5575V37.1176C557.683 35.1852 558.06 33.3705 558.815 31.6737C559.62 29.9769 560.676 28.5158 561.984 27.2903C563.343 26.0177 564.928 25.0279 566.739 24.3209C568.55 23.5668 570.462 23.1897 572.475 23.1897H612.398C614.46 23.1897 616.372 23.5668 618.133 24.3209C619.945 25.0279 621.504 26.0177 622.812 27.2903C624.171 28.5158 625.227 29.9769 625.982 31.6737C626.787 33.3705 627.19 35.1852 627.19 37.1176V84.5575ZM572.475 37.1176V84.5575H612.398V37.1176H572.475Z" stroke="white"/>
<path d="M700.545 84.5575V67.0945H665.301C663.239 67.0945 661.302 66.741 659.49 66.034C657.679 65.2799 656.094 64.2901 654.736 63.0646C653.428 61.792 652.371 60.3073 651.566 58.6105C650.811 56.9137 650.434 55.0991 650.434 53.1666V37.1176C650.434 35.1852 650.811 33.3705 651.566 31.6737C652.371 29.9769 653.428 28.5158 654.736 27.2903C656.094 26.0177 657.679 25.0279 659.49 24.3209C661.302 23.5668 663.239 23.1897 665.301 23.1897H712.319V37.1176H665.301V53.1666H700.545C702.608 53.1666 704.52 53.5436 706.281 54.2978C708.092 55.0048 709.677 55.9946 711.036 57.2672C712.394 58.4927 713.451 59.9538 714.205 61.6506C715.01 63.3474 715.413 65.1621 715.413 67.0945V84.5575C715.413 86.4899 715.01 88.3046 714.205 90.0014C713.451 91.6982 712.394 93.1829 711.036 94.4555C709.677 95.681 708.092 96.6708 706.281 97.4249C704.52 98.1319 702.608 98.4854 700.545 98.4854H650.434V84.5575H700.545Z" stroke="white"/>
<path d="M469.459 23.1897H535.948V26.9368L493.157 84.5575H535.948V98.4854H467.95V94.7383L510.741 37.1176H469.459V23.1897Z" stroke="white"/>
<path d="M585.338 53.8882H600.203V68.754H585.338V53.8882Z" fill="#9AFF8D"/>
<path d="M158.99 23.1895H185.404V37.1172H158.99V84.5576H185.404V98.4854H158.99C156.977 98.4853 155.066 98.1318 153.254 97.4248C151.443 96.6707 149.858 95.6805 148.5 94.4551C147.141 93.1825 146.059 91.6977 145.254 90.001C144.5 88.3043 144.123 86.4899 144.123 84.5576V37.1172H124.5V23.1895H144.123V0H158.99V23.1895Z" fill="white"/>
<path d="M158.99 23.1895H185.404V37.1172H158.99V84.5576H185.404V98.4854H158.99C156.977 98.4853 155.066 98.1318 153.254 97.4248C151.443 96.6707 149.858 95.6805 148.5 94.4551C147.141 93.1825 146.059 91.6977 145.254 90.001C144.5 88.3043 144.123 86.4899 144.123 84.5576V37.1172H124.5V23.1895H144.123V0H158.99V23.1895Z" stroke="white"/>
<rect x="38.6509" y="22.2979" width="19.3254" height="57.9763" fill="#70B168"/>
<path d="M57.9763 22.2979L57.9763 41.6233L19.3255 41.6233L19.3255 22.2979L38.6509 22.2979L38.6509 3.71643L57.9763 3.71643L57.9763 22.2979Z" fill="#9AFF8D"/>
<rect x="77.3018" y="22.2979" width="19.3254" height="19.3254" fill="#9AFF8D"/>
<rect y="41.6233" width="19.3254" height="19.3254" fill="#70B168"/>
<rect x="57.9763" y="80.2742" width="19.3254" height="19.3254" fill="#9AFF8D"/>
<path d="M391.406 145.36C393.625 145.36 395.566 145.701 397.23 146.384C398.937 147.067 400.409 148.048 401.646 149.328C402.884 150.608 403.886 152.123 404.654 153.872L399.79 156.176C399.108 154.128 398.062 152.571 396.654 151.504C395.289 150.395 393.497 149.84 391.278 149.84C389.145 149.84 387.31 150.331 385.774 151.312C384.238 152.251 383.065 153.637 382.254 155.472C381.444 157.264 381.038 159.44 381.038 162C381.038 164.517 381.444 166.693 382.254 168.528C383.065 170.363 384.238 171.771 385.774 172.752C387.31 173.691 389.145 174.16 391.278 174.16C392.942 174.16 394.372 173.904 395.566 173.392C396.804 172.88 397.806 172.133 398.574 171.152C399.385 170.171 399.94 168.976 400.238 167.568L404.974 169.232C404.249 171.195 403.246 172.88 401.966 174.288C400.729 175.696 399.214 176.784 397.422 177.552C395.673 178.277 393.668 178.64 391.406 178.64C388.42 178.64 385.753 177.979 383.406 176.656C381.06 175.333 379.225 173.435 377.902 170.96C376.58 168.443 375.918 165.456 375.918 162C375.918 158.544 376.58 155.579 377.902 153.104C379.225 150.587 381.06 148.667 383.406 147.344C385.753 146.021 388.42 145.36 391.406 145.36ZM418.835 131.28V169.872C418.835 171.493 419.133 172.624 419.731 173.264C420.328 173.861 421.288 174.16 422.611 174.16C423.464 174.16 424.168 174.096 424.723 173.968C425.277 173.84 426.024 173.605 426.963 173.264L426.131 177.744C425.448 178.043 424.701 178.256 423.891 178.384C423.08 178.555 422.248 178.64 421.395 178.64C418.792 178.64 416.851 177.936 415.571 176.528C414.333 175.12 413.715 172.965 413.715 170.064V131.28H418.835ZM445.117 178.64C443.069 178.64 441.128 178.256 439.293 177.488C437.501 176.72 436.029 175.483 434.877 173.776C433.768 172.027 433.213 169.765 433.213 166.992V146H438.333V165.648C438.333 168.891 439.037 171.131 440.445 172.368C441.853 173.563 443.837 174.16 446.397 174.16C447.592 174.16 448.765 173.968 449.917 173.584C451.069 173.157 452.093 172.517 452.989 171.664C453.928 170.768 454.653 169.637 455.165 168.272C455.72 166.907 455.997 165.285 455.997 163.408V146H461.117V178H456.637L456.317 173.136C455.208 175.056 453.693 176.464 451.773 177.36C449.896 178.213 447.677 178.64 445.117 178.64ZM484.553 178.64C481.439 178.64 478.559 177.979 475.913 176.656C473.311 175.333 471.305 173.456 469.897 171.024L474.249 167.888C475.188 169.851 476.553 171.387 478.345 172.496C480.18 173.605 482.377 174.16 484.937 174.16C487.199 174.16 488.969 173.733 490.249 172.88C491.529 171.984 492.169 170.832 492.169 169.424C492.169 168.528 491.871 167.717 491.273 166.992C490.719 166.224 489.631 165.669 488.009 165.328L480.329 163.728C477.215 163.088 474.975 162.021 473.609 160.528C472.287 159.035 471.625 157.179 471.625 154.96C471.625 153.211 472.116 151.611 473.097 150.16C474.121 148.709 475.551 147.557 477.385 146.704C479.263 145.808 481.46 145.36 483.977 145.36C487.135 145.36 489.801 145.979 491.977 147.216C494.153 148.453 495.775 150.203 496.841 152.464L492.553 155.28C491.828 153.403 490.655 152.037 489.033 151.184C487.412 150.288 485.727 149.84 483.977 149.84C482.441 149.84 481.119 150.053 480.009 150.48C478.943 150.907 478.111 151.504 477.513 152.272C476.959 152.997 476.681 153.829 476.681 154.768C476.681 155.707 477.001 156.581 477.641 157.392C478.281 158.16 479.476 158.715 481.225 159.056L489.225 160.72C492.212 161.317 494.303 162.299 495.497 163.664C496.692 165.029 497.289 166.693 497.289 168.656C497.289 170.661 496.756 172.432 495.689 173.968C494.623 175.461 493.129 176.613 491.209 177.424C489.289 178.235 487.071 178.64 484.553 178.64ZM514.335 136.912V169.168C514.335 170.747 514.783 171.92 515.679 172.688C516.575 173.456 517.727 173.84 519.135 173.84C520.373 173.84 521.439 173.627 522.335 173.2C523.231 172.773 524.042 172.197 524.767 171.472L526.559 175.76C525.578 176.656 524.405 177.36 523.039 177.872C521.717 178.384 520.181 178.64 518.431 178.64C516.81 178.64 515.295 178.363 513.887 177.808C512.479 177.211 511.349 176.293 510.495 175.056C509.685 173.776 509.258 172.112 509.215 170.064V138.32L514.335 136.912ZM525.983 146V150.416H502.815V146H525.983ZM546.972 178.64C543.942 178.64 541.233 177.979 538.844 176.656C536.497 175.333 534.662 173.435 533.34 170.96C532.017 168.443 531.356 165.456 531.356 162C531.356 158.544 532.017 155.579 533.34 153.104C534.662 150.587 536.476 148.667 538.78 147.344C541.084 146.021 543.708 145.36 546.652 145.36C549.638 145.36 552.177 146 554.268 147.28C556.401 148.56 558.022 150.309 559.132 152.528C560.241 154.704 560.796 157.157 560.796 159.888C560.796 160.613 560.774 161.275 560.732 161.872C560.689 162.469 560.625 163.003 560.54 163.472H534.684V158.928H558.3L555.676 159.44C555.676 156.368 554.822 154 553.116 152.336C551.452 150.672 549.254 149.84 546.524 149.84C544.433 149.84 542.62 150.331 541.084 151.312C539.59 152.251 538.417 153.637 537.564 155.472C536.753 157.264 536.348 159.44 536.348 162C536.348 164.517 536.774 166.693 537.628 168.528C538.481 170.363 539.676 171.771 541.212 172.752C542.79 173.691 544.668 174.16 546.844 174.16C549.19 174.16 551.089 173.712 552.54 172.816C554.033 171.92 555.228 170.704 556.124 169.168L560.156 171.536C559.345 172.987 558.3 174.245 557.02 175.312C555.782 176.379 554.31 177.211 552.604 177.808C550.94 178.363 549.062 178.64 546.972 178.64ZM570.533 178V146H574.693L575.397 151.248C576.293 149.285 577.595 147.813 579.301 146.832C581.051 145.851 583.163 145.36 585.637 145.36C586.192 145.36 586.789 145.403 587.429 145.488C588.112 145.573 588.688 145.744 589.157 146L588.261 150.672C587.792 150.501 587.28 150.373 586.725 150.288C586.171 150.203 585.381 150.16 584.357 150.16C583.035 150.16 581.691 150.544 580.325 151.312C579.003 152.08 577.893 153.253 576.997 154.832C576.101 156.368 575.653 158.331 575.653 160.72V178H570.533ZM616.971 191.44V146H621.451L621.899 153.808L621.195 152.912C621.749 151.419 622.581 150.117 623.691 149.008C624.8 147.856 626.144 146.96 627.723 146.32C629.301 145.68 631.008 145.36 632.843 145.36C635.445 145.36 637.835 146.021 640.011 147.344C642.229 148.667 644 150.565 645.323 153.04C646.645 155.515 647.307 158.501 647.307 162C647.307 165.456 646.624 168.443 645.259 170.96C643.936 173.435 642.165 175.333 639.947 176.656C637.728 177.979 635.296 178.64 632.651 178.64C630.005 178.64 627.68 178 625.675 176.72C623.712 175.397 622.304 173.733 621.451 171.728L622.091 170.768V191.44H616.971ZM632.139 174.16C635.296 174.16 637.749 173.051 639.499 170.832C641.291 168.613 642.187 165.669 642.187 162C642.187 158.331 641.312 155.387 639.563 153.168C637.856 150.949 635.445 149.84 632.331 149.84C630.283 149.84 628.491 150.352 626.955 151.376C625.419 152.357 624.224 153.765 623.371 155.6C622.517 157.392 622.091 159.525 622.091 162C622.091 164.432 622.496 166.565 623.307 168.4C624.16 170.235 625.333 171.664 626.827 172.688C628.363 173.669 630.133 174.16 632.139 174.16ZM657.096 178V146H661.256L661.96 151.248C662.856 149.285 664.157 147.813 665.864 146.832C667.613 145.851 669.725 145.36 672.2 145.36C672.754 145.36 673.352 145.403 673.992 145.488C674.674 145.573 675.25 145.744 675.72 146L674.824 150.672C674.354 150.501 673.842 150.373 673.288 150.288C672.733 150.203 671.944 150.16 670.92 150.16C669.597 150.16 668.253 150.544 666.888 151.312C665.565 152.08 664.456 153.253 663.56 154.832C662.664 156.368 662.216 158.331 662.216 160.72V178H657.096ZM695.469 145.36C698.498 145.36 701.165 146.021 703.469 147.344C705.815 148.667 707.65 150.587 708.973 153.104C710.295 155.579 710.957 158.544 710.957 162C710.957 165.456 710.295 168.443 708.973 170.96C707.65 173.435 705.815 175.333 703.469 176.656C701.165 177.979 698.498 178.64 695.469 178.64C692.482 178.64 689.815 177.979 687.469 176.656C685.122 175.333 683.287 173.435 681.965 170.96C680.642 168.443 679.981 165.456 679.981 162C679.981 158.544 680.642 155.579 681.965 153.104C683.287 150.587 685.122 148.667 687.469 147.344C689.815 146.021 692.482 145.36 695.469 145.36ZM695.469 149.776C693.293 149.776 691.437 150.267 689.901 151.248C688.365 152.229 687.17 153.637 686.317 155.472C685.506 157.264 685.101 159.44 685.101 162C685.101 164.517 685.506 166.693 686.317 168.528C687.17 170.363 688.365 171.771 689.901 172.752C691.437 173.733 693.293 174.224 695.469 174.224C697.645 174.224 699.501 173.733 701.037 172.752C702.573 171.771 703.746 170.363 704.557 168.528C705.41 166.693 705.837 164.517 705.837 162C705.837 159.44 705.41 157.264 704.557 155.472C703.746 153.637 702.573 152.229 701.037 151.248C699.501 150.267 697.645 149.776 695.469 149.776Z" fill="#A8A8A8"/>
</svg>
